<?xml version="1.0" encoding="UTF-8"?>
<!DOCTYPE svg PUBLIC "-//W3C//DTD SVG 1.1//EN" "http://www.w3.org/Graphics/SVG/1.1/DTD/svg11.dtd">
<svg version="1.1" xmlns="http://www.w3.org/2000/svg" xmlns:xlink="http://www.w3.org/1999/xlink" x="0" y="0" width="13.57" height="13.569" viewBox="0, 0, 13.57, 13.569">
  <g id="Layer_1" transform="translate(-0, 0)">
    <path d="M8.104,6.533 C8.028,6.016 7.552,5.541 7.036,5.464 L7.036,2.03 C9.436,2.126 11.442,4.134 11.539,6.533 L8.104,6.533 z M7.036,11.54 L7.036,8.105 C7.552,8.027 8.028,7.553 8.104,7.037 L11.539,7.037 C11.442,9.436 9.436,11.442 7.036,11.54 z M6.533,5.464 L6.532,5.464 C6.017,5.541 5.542,6.016 5.464,6.533 L2.03,6.533 C2.126,4.134 4.134,2.126 6.532,2.03 L6.533,2.03 L6.533,5.464 z M6.533,11.54 L6.532,11.54 C4.134,11.442 2.126,9.436 2.03,7.037 L5.464,7.037 C5.542,7.553 6.017,8.027 6.532,8.105 L6.533,8.105 L6.533,11.54 z M12.422,6.337 L13.381,6.784 L13.57,6.471 L13.442,6.411 L13.312,6.444 L12.14,5.897 C12.123,5.89 12.092,5.872 12.076,5.863 C11.745,5.663 11.636,5.233 11.835,4.902 L12.008,4.617 L13.058,4.747 L13.14,4.39 L13,4.372 L12.888,4.443 L11.605,4.285 C11.585,4.284 11.55,4.278 11.532,4.273 C11.155,4.186 10.92,3.81 11.007,3.433 L11.081,3.11 L12.121,2.907 L12.089,2.543 L11.952,2.57 L11.865,2.672 L10.596,2.918 C10.578,2.923 10.542,2.927 10.523,2.929 C10.138,2.963 9.798,2.677 9.765,2.292 L9.764,2.292 L9.736,1.961 L10.662,1.448 L10.519,1.111 L10.395,1.179 L10.346,1.303 L9.215,1.93 C9.199,1.94 9.166,1.955 9.149,1.963 C8.792,2.114 8.383,1.947 8.231,1.592 L8.101,1.286 L8.823,0.512 L8.583,0.235 L8.487,0.338 L8.477,0.472 L7.595,1.417 L7.596,1.417 C7.583,1.431 7.557,1.456 7.543,1.468 C7.251,1.722 6.809,1.691 6.555,1.399 L6.337,1.148 L6.784,0.189 L6.471,-0 L6.412,0.128 L6.444,0.257 L5.897,1.43 C5.89,1.446 5.873,1.478 5.863,1.494 C5.663,1.825 5.234,1.932 4.902,1.733 L4.618,1.562 L4.746,0.512 L4.39,0.429 L4.373,0.568 L4.443,0.682 L4.286,1.965 C4.283,1.983 4.277,2.019 4.273,2.038 C4.186,2.414 3.81,2.649 3.433,2.563 L3.11,2.488 L2.907,1.448 L2.542,1.48 L2.569,1.619 L2.672,1.705 L2.918,2.973 C2.922,2.991 2.928,3.028 2.929,3.046 C2.963,3.431 2.677,3.771 2.293,3.804 L1.962,3.834 L1.448,2.907 L1.111,3.051 L1.18,3.173 L1.304,3.224 L1.93,4.355 C1.94,4.372 1.955,4.403 1.963,4.421 C2.114,4.777 1.948,5.188 1.592,5.338 L1.286,5.469 L0.511,4.747 L0.235,4.986 L0.338,5.083 L0.471,5.092 L1.417,5.974 C1.43,5.986 1.456,6.012 1.467,6.027 C1.722,6.319 1.691,6.76 1.399,7.014 L1.148,7.232 L0.189,6.784 L0,7.098 L0.127,7.158 L0.257,7.125 L1.429,7.672 C1.447,7.68 1.478,7.696 1.494,7.707 C1.825,7.906 1.933,8.336 1.733,8.668 L1.562,8.952 L0.511,8.823 L0.429,9.179 L0.568,9.197 L0.682,9.126 L1.966,9.284 C1.985,9.286 2.019,9.292 2.038,9.296 C2.415,9.383 2.649,9.759 2.562,10.136 L2.488,10.46 L1.448,10.662 L1.48,11.027 L1.618,11 L1.705,10.897 L2.974,10.651 C2.992,10.646 3.027,10.641 3.046,10.641 C3.432,10.607 3.771,10.891 3.805,11.277 L3.834,11.608 L2.907,12.121 L3.05,12.458 L3.174,12.39 L3.223,12.266 L4.355,11.638 C4.371,11.63 4.404,11.613 4.421,11.608 C4.777,11.456 5.188,11.621 5.339,11.978 L5.469,12.284 L4.746,13.058 L4.986,13.334 L5.083,13.231 L5.092,13.097 L5.974,12.153 C5.987,12.138 6.013,12.113 6.027,12.102 C6.319,11.849 6.762,11.879 7.014,12.171 L7.232,12.42 L6.784,13.38 L7.099,13.569 L7.158,13.442 L7.126,13.312 L7.672,12.14 C7.679,12.123 7.697,12.092 7.706,12.075 C7.906,11.744 8.336,11.637 8.667,11.836 L8.952,12.007 L8.823,13.058 L9.18,13.14 L9.196,13 L9.127,12.887 L9.284,11.604 C9.285,11.585 9.292,11.549 9.297,11.531 C9.383,11.154 9.759,10.92 10.135,11.007 L10.459,11.081 L10.662,12.121 L11.027,12.089 L11,11.952 L10.898,11.865 L10.651,10.596 C10.647,10.577 10.641,10.543 10.641,10.523 C10.607,10.138 10.891,9.798 11.277,9.764 L11.607,9.736 L12.121,10.662 L12.458,10.518 L12.39,10.396 L12.266,10.345 L11.638,9.215 C11.63,9.198 11.614,9.167 11.607,9.148 C11.456,8.792 11.622,8.381 11.978,8.231 L12.283,8.101 L13.058,8.823 L13.335,8.584 L13.232,8.486 L13.098,8.478 L12.152,7.595 C12.138,7.583 12.114,7.557 12.102,7.542 C11.848,7.251 11.878,6.809 12.17,6.555 L12.422,6.337" fill="#FFE17C"/>
  </g>
</svg>
