<?xml version="1.0" encoding="UTF-8"?>
<!DOCTYPE svg PUBLIC "-//W3C//DTD SVG 1.1//EN" "http://www.w3.org/Graphics/SVG/1.1/DTD/svg11.dtd">
<svg version="1.1" xmlns="http://www.w3.org/2000/svg" xmlns:xlink="http://www.w3.org/1999/xlink" x="0" y="0" width="13.57" height="13.569" viewBox="0, 0, 13.57, 13.569">
  <g id="Layer_1" transform="translate(-629.687, -450.344)">
    <path d="M637.791,456.877 C637.715,456.36 637.239,455.885 636.723,455.808 L636.723,452.374 C639.123,452.47 641.129,454.478 641.226,456.877 L637.791,456.877 z M636.723,461.884 L636.723,458.449 C637.239,458.371 637.715,457.897 637.791,457.381 L641.226,457.381 C641.129,459.78 639.123,461.786 636.723,461.884 z M636.22,455.808 L636.219,455.808 C635.704,455.885 635.229,456.36 635.151,456.877 L631.717,456.877 C631.813,454.478 633.821,452.47 636.219,452.374 L636.22,452.374 L636.22,455.808 z M636.22,461.884 L636.219,461.884 C633.821,461.786 631.813,459.78 631.717,457.381 L635.151,457.381 C635.229,457.897 635.704,458.371 636.219,458.449 L636.22,458.449 L636.22,461.884 z M642.109,456.681 L643.068,457.128 L643.257,456.815 L643.129,456.755 L642.999,456.788 L641.827,456.241 C641.81,456.234 641.779,456.216 641.763,456.207 C641.432,456.007 641.323,455.577 641.522,455.246 L641.695,454.961 L642.745,455.091 L642.827,454.734 L642.687,454.716 L642.575,454.787 L641.292,454.629 C641.272,454.628 641.237,454.622 641.219,454.617 C640.842,454.53 640.607,454.154 640.694,453.777 L640.768,453.454 L641.808,453.251 L641.776,452.887 L641.639,452.914 L641.552,453.016 L640.283,453.262 C640.265,453.267 640.229,453.271 640.21,453.273 C639.825,453.307 639.485,453.021 639.452,452.636 L639.451,452.636 L639.423,452.305 L640.349,451.792 L640.206,451.455 L640.082,451.523 L640.033,451.647 L638.902,452.274 C638.886,452.284 638.853,452.299 638.836,452.307 C638.479,452.458 638.07,452.291 637.918,451.936 L637.788,451.63 L638.51,450.856 L638.27,450.579 L638.174,450.682 L638.164,450.816 L637.282,451.761 L637.283,451.761 C637.27,451.775 637.244,451.8 637.23,451.812 C636.938,452.066 636.496,452.035 636.242,451.743 L636.024,451.492 L636.471,450.533 L636.158,450.344 L636.099,450.472 L636.131,450.601 L635.584,451.774 C635.577,451.79 635.56,451.822 635.55,451.838 C635.35,452.169 634.921,452.276 634.589,452.077 L634.305,451.906 L634.433,450.856 L634.077,450.773 L634.06,450.912 L634.13,451.026 L633.973,452.309 C633.97,452.327 633.964,452.363 633.96,452.382 C633.873,452.758 633.497,452.993 633.12,452.907 L632.797,452.832 L632.594,451.792 L632.229,451.824 L632.256,451.963 L632.359,452.049 L632.605,453.317 C632.609,453.335 632.615,453.372 632.616,453.39 C632.65,453.775 632.364,454.115 631.98,454.148 L631.649,454.178 L631.135,453.251 L630.798,453.395 L630.867,453.517 L630.991,453.568 L631.617,454.699 C631.627,454.716 631.642,454.747 631.65,454.765 C631.801,455.121 631.635,455.532 631.279,455.682 L630.973,455.813 L630.198,455.091 L629.922,455.33 L630.025,455.427 L630.158,455.436 L631.104,456.318 C631.117,456.33 631.143,456.356 631.154,456.371 C631.409,456.663 631.378,457.104 631.086,457.358 L630.835,457.576 L629.876,457.128 L629.687,457.442 L629.814,457.502 L629.944,457.469 L631.116,458.016 C631.134,458.024 631.165,458.04 631.181,458.051 C631.512,458.25 631.62,458.68 631.42,459.012 L631.249,459.296 L630.198,459.167 L630.116,459.523 L630.255,459.541 L630.369,459.47 L631.653,459.628 C631.672,459.63 631.706,459.636 631.725,459.64 C632.102,459.727 632.336,460.103 632.249,460.48 L632.175,460.804 L631.135,461.006 L631.167,461.371 L631.305,461.344 L631.392,461.241 L632.661,460.995 C632.679,460.99 632.714,460.985 632.733,460.985 C633.119,460.951 633.458,461.235 633.492,461.621 L633.521,461.952 L632.594,462.465 L632.737,462.802 L632.861,462.734 L632.91,462.61 L634.042,461.982 C634.058,461.974 634.091,461.957 634.108,461.952 C634.464,461.8 634.875,461.965 635.026,462.322 L635.156,462.628 L634.433,463.402 L634.673,463.678 L634.77,463.575 L634.779,463.441 L635.661,462.497 C635.674,462.482 635.7,462.457 635.714,462.446 C636.006,462.193 636.449,462.223 636.701,462.515 L636.919,462.764 L636.471,463.724 L636.786,463.913 L636.845,463.786 L636.813,463.656 L637.359,462.484 C637.366,462.467 637.384,462.436 637.393,462.419 C637.593,462.088 638.023,461.981 638.354,462.18 L638.639,462.351 L638.51,463.402 L638.867,463.484 L638.883,463.344 L638.814,463.231 L638.971,461.948 C638.972,461.929 638.979,461.893 638.984,461.875 C639.07,461.498 639.446,461.264 639.822,461.351 L640.146,461.425 L640.349,462.465 L640.714,462.433 L640.687,462.296 L640.585,462.209 L640.338,460.94 C640.334,460.921 640.328,460.887 640.328,460.867 C640.294,460.482 640.578,460.142 640.964,460.108 L641.294,460.08 L641.808,461.006 L642.145,460.862 L642.077,460.74 L641.953,460.689 L641.325,459.559 C641.317,459.542 641.301,459.511 641.294,459.492 C641.143,459.136 641.309,458.725 641.665,458.575 L641.97,458.445 L642.745,459.167 L643.022,458.928 L642.919,458.83 L642.785,458.822 L641.839,457.939 C641.825,457.927 641.801,457.901 641.789,457.886 C641.535,457.595 641.565,457.153 641.857,456.899 L642.109,456.681" fill="#333333"/>
  </g>
</svg>
